<svg id="Capa_1" enable-background="new 0 0 489.244 489.244" height="512" viewBox="0 0 489.244 489.244" width="512" xmlns="http://www.w3.org/2000/svg"><g><g id="Responsive_Desgin"><g><g><g><path d="m429.593 77.956v267.482c0 10.749-8.698 19.447-19.402 19.447h-388.846c-10.704 0-19.402-8.698-19.402-19.447v-267.482c0-10.794 8.698-19.491 19.402-19.491h388.846c10.705 0 19.402 8.697 19.402 19.491z" fill="#d4f4ff"/></g><g opacity=".05"><path d="m429.638 77.956v267.527c0 10.704-8.742 19.402-19.447 19.402h-388.846c-10.036 0-18.287-7.538-19.313-17.306h121.141c84.21 0 159.99-36.307 212.532-94.156 15.477-17.038 28.947-35.95 40.008-56.378 21.989-40.588 34.478-87.064 34.478-136.484 0-.669-.044-1.383-.134-2.096h.134c10.705 0 19.447 8.697 19.447 19.491z"/></g><g opacity=".05"><path d="m429.638 197.045v148.438c0 10.704-8.742 19.402-19.447 19.402h-74.486v-137.823c0-16.547 13.425-30.017 29.973-30.017z"/></g><g opacity=".4"><path d="m427.214 68.591c-2.763-1.479-5.915-2.335-9.262-2.335h-388.816c-10.74 0-19.456 8.716-19.456 19.456v267.525c0 3.346.856 6.498 2.335 9.261-6.031-3.308-10.117-9.689-10.117-17.044v-267.523c0-10.74 8.716-19.456 19.456-19.456h388.816c7.354-.001 13.736 4.085 17.044 10.116z" fill="#fff"/></g><g><path d="m290.007 430.752h-148.491l9.806-9.806c12.102-12.102 19.884-27.667 22.375-44.36.545-3.852.856-7.744.856-11.674h82.417c0 3.93.311 7.821.856 11.674.973 6.42 2.724 12.686 5.175 18.639 3.969 9.534 9.767 18.289 17.199 25.721z" fill="#d4f4ff"/></g><g opacity=".1"><path d="m257.826 376.586h-84.129c.545-3.852.856-7.744.856-11.674h82.417c0 3.93.311 7.821.856 11.674z"/></g><g><path d="m21.345 77.956h388.846v227.072h-388.846z" fill="#fff"/></g><g opacity=".05"><path d="m410.191 197.045v107.983h-74.486v-77.966c0-16.547 13.425-30.017 29.973-30.017z"/></g><g opacity=".4"><g><path d="m323.9 77.931-118.528 227.094h-137.168l118.529-227.094z" fill="#d4f4ff"/></g><g><path d="m363.319 77.931-118.528 227.094h-20.43l118.528-227.094z" fill="#d4f4ff"/></g></g><g><circle cx="215.82" cy="344.864" fill="#fff" r="7.783"/></g></g><g><path d="m394.561 100.731v61.175c0 4.189-3.396 7.585-7.585 7.585h-342.282c-4.189 0-7.585-3.396-7.585-7.585v-61.175c0-4.189 3.396-7.585 7.585-7.585h342.281c4.19 0 7.586 3.396 7.586 7.585z" fill="#ff4b3a"/></g><g><path d="m394.544 100.744v12.933c0-4.172-3.375-7.585-7.585-7.585h-342.281c-4.172 0-7.585 3.413-7.585 7.585v-12.933c0-4.21 3.413-7.585 7.585-7.585h342.281c4.21 0 7.585 3.375 7.585 7.585z" fill="#fc6868"/></g><g><path d="m121.022 190.287v68.722c0 4.189-3.396 7.585-7.585 7.585h-68.76c-4.189 0-7.585-3.396-7.585-7.585v-68.722c0-4.189 3.396-7.585 7.585-7.585h68.76c4.189 0 7.585 3.396 7.585 7.585z" fill="#00ffc1"/></g><g><path d="m256.521 190.287v68.722c0 4.189-3.396 7.585-7.585 7.585h-68.76c-4.189 0-7.585-3.396-7.585-7.585v-68.722c0-4.189 3.396-7.585 7.585-7.585h68.76c4.188 0 7.585 3.396 7.585 7.585z" fill="#00c5ea"/></g><g><path d="m394.561 190.287v68.722c0 4.189-3.396 7.585-7.585 7.585h-68.76c-4.189 0-7.585-3.396-7.585-7.585v-68.722c0-4.189 3.396-7.585 7.585-7.585h68.76c4.189 0 7.585 3.396 7.585 7.585z" fill="#ffe93e"/></g><g><g><path d="m487.349 227.05v187.106c0 9.189-7.418 16.607-16.607 16.607h-105.067c-9.189 0-16.607-7.418-16.607-16.607v-187.106c0-9.189 7.418-16.607 16.607-16.607h105.067c3.543 0 6.809 1.107 9.466 2.934 4.318 2.989 7.141 8.026 7.141 13.673z" fill="#fff"/></g><g><g><path d="m480.208 213.377-81.153 217.386h-33.38c-9.189 0-16.607-7.418-16.607-16.607v-69.694l50.042-134.019h71.632c3.543 0 6.809 1.107 9.466 2.934z" fill="#d4f4ff"/></g><g><path d="m390.637 322.961v22.466c0 2.095-1.698 3.793-3.793 3.793h-22.489c-2.095 0-3.793-1.698-3.793-3.793v-22.466c0-2.095 1.698-3.793 3.793-3.793h22.489c2.095.001 3.793 1.699 3.793 3.793z" fill="#00ffc1"/></g><g><path d="m487.349 238.453v58.291l-50.042 134.019h-21.756z" fill="#d4f4ff"/></g></g><g><path d="m487.349 245.29v-18.24c0-9.172-7.435-16.607-16.607-16.607h-105.067c-9.172 0-16.607 7.435-16.607 16.607v18.24z" fill="#76819f"/></g><g><path d="m487.343 227.031v9.065c0-9.147-7.424-16.612-16.612-16.612h-105.045c-9.188 0-16.612 7.465-16.612 16.612v-9.065c0-9.147 7.424-16.571 16.612-16.571h105.045c9.187 0 16.612 7.424 16.612 16.571z" fill="#a3acbf"/></g><g><path d="m349.068 395.916v18.24c0 9.172 7.435 16.607 16.607 16.607h105.067c9.172 0 16.607-7.435 16.607-16.607v-18.24z" fill="#76819f"/></g><g><path d="m487.343 405.25v8.901c0 9.188-7.424 16.612-16.612 16.612h-105.045c-9.188 0-16.612-7.424-16.612-16.612v-8.901c0 9.147 7.424 16.612 16.612 16.612h105.045c9.187 0 16.612-7.465 16.612-16.612z" fill="#a3acbf"/></g><g><path d="m426.634 413.325c0 4.706-3.797 8.525-8.475 8.525s-8.475-3.82-8.475-8.525 3.797-8.525 8.475-8.525c4.678.001 8.475 3.82 8.475 8.525z" fill="#fff"/></g></g><g><path d="m475.842 264.874v34.604c0 4.189-3.396 7.585-7.585 7.585h-100.097c-4.189 0-7.585-3.396-7.585-7.585v-34.604c0-4.189 3.396-7.585 7.585-7.585h100.096c4.19-.001 7.586 3.395 7.586 7.585z" fill="#ff4b3a"/></g><g><path d="m475.857 264.887v8.988c0-4.172-3.413-7.585-7.585-7.585h-100.124c-4.172 0-7.585 3.413-7.585 7.585v-8.988c0-4.21 3.413-7.585 7.585-7.585h100.124c4.172 0 7.585 3.376 7.585 7.585z" fill="#fc6868"/></g><g><path d="m433.246 322.961v22.466c0 2.095-1.698 3.793-3.793 3.793h-22.489c-2.095 0-3.793-1.698-3.793-3.793v-22.466c0-2.095 1.698-3.793 3.793-3.793h22.489c2.095.001 3.793 1.699 3.793 3.793z" fill="#00c5ea"/></g><g><path d="m475.842 322.961v22.466c0 2.095-1.698 3.793-3.793 3.793h-22.489c-2.095 0-3.793-1.698-3.793-3.793v-22.466c0-2.095 1.698-3.793 3.793-3.793h22.489c2.095.001 3.793 1.699 3.793 3.793z" fill="#ffe93e"/></g><g fill="#384b7d"><path d="m2.559 428.866h-.663c-1.048 0-1.896.848-1.896 1.896s.848 1.896 1.896 1.896h.663c1.048 0 1.896-.848 1.896-1.896s-.848-1.896-1.896-1.896z"/><path d="m90.048 428.866h-79.904c-1.048 0-1.896.848-1.896 1.896s.848 1.896 1.896 1.896h79.904c1.048 0 1.896-.848 1.896-1.896s-.848-1.896-1.896-1.896z"/><path d="m487.348 428.866h-.619c-1.048 0-1.896.848-1.896 1.896s.848 1.896 1.896 1.896h.619c1.048 0 1.896-.848 1.896-1.896s-.848-1.896-1.896-1.896z"/><path d="m252.363 405.703h-73.756c-1.048 0-1.896.848-1.896 1.896s.848 1.896 1.896 1.896h73.756c1.048 0 1.896-.848 1.896-1.896s-.848-1.896-1.896-1.896z"/><path d="m215.819 335.186c-5.337 0-9.678 4.341-9.678 9.678s4.341 9.68 9.678 9.68 9.681-4.343 9.681-9.68-4.344-9.678-9.681-9.678zm0 15.565c-3.244 0-5.885-2.641-5.885-5.887 0-3.244 2.641-5.885 5.885-5.885 3.248 0 5.889 2.641 5.889 5.885-.001 3.246-2.641 5.887-5.889 5.887z"/><path d="m44.693 171.388h342.281c5.23 0 9.481-4.254 9.481-9.481v-61.176c0-5.228-4.252-9.481-9.481-9.481h-342.281c-5.23 0-9.481 4.254-9.481 9.481v61.176c-.001 5.227 4.251 9.481 9.481 9.481zm-5.689-70.657c0-3.137 2.552-5.689 5.689-5.689h342.281c3.137 0 5.689 2.552 5.689 5.689v61.176c0 3.137-2.552 5.689-5.689 5.689h-342.281c-3.137 0-5.689-2.552-5.689-5.689z"/><path d="m44.678 268.49h68.759c5.23 0 9.481-4.254 9.481-9.481v-68.72c0-5.228-4.252-9.481-9.481-9.481h-68.759c-5.23 0-9.481 4.254-9.481 9.481v68.72c-.001 5.227 4.251 9.481 9.481 9.481zm-5.689-9.482v-68.72c0-.876.215-1.695.57-2.437l37.227 37.228-36.925 36.924c-.544-.872-.872-1.893-.872-2.995zm5.689 5.689c-.641 0-1.247-.13-1.822-.326l36.612-36.611 36.381 36.381c-.735.346-1.546.556-2.411.556zm74.113-76.259c.202.583.335 1.199.335 1.85v68.72c0 .886-.221 1.715-.584 2.464l-36.393-36.394zm-5.354-3.839c1.092 0 2.103.324 2.97.859l-36.939 36.939-37.228-37.228c.742-.355 1.562-.57 2.438-.57z"/><path d="m113.437 277.908h-68.759c-1.048 0-1.896.848-1.896 1.896s.848 1.896 1.896 1.896h68.759c1.048 0 1.896-.848 1.896-1.896s-.848-1.896-1.896-1.896z"/><path d="m113.437 289.286h-68.759c-1.048 0-1.896.848-1.896 1.896s.848 1.896 1.896 1.896h68.759c1.048 0 1.896-.848 1.896-1.896s-.848-1.896-1.896-1.896z"/><path d="m248.937 180.806h-68.763c-5.23 0-9.481 4.254-9.481 9.481v68.72c0 5.228 4.252 9.481 9.481 9.481h68.763c5.23 0 9.481-4.254 9.481-9.481v-68.72c.001-5.227-4.251-9.481-9.481-9.481zm5.689 9.482v68.72c0 .886-.222 1.715-.584 2.464l-36.395-36.394 36.644-36.643c.202.584.335 1.201.335 1.853zm-5.689-5.689c1.091 0 2.101.324 2.968.858l-36.94 36.939-37.228-37.227c.742-.355 1.562-.57 2.437-.57zm-73.579 77.403c-.544-.872-.873-1.892-.873-2.994v-68.72c0-.876.215-1.696.57-2.438l37.228 37.227zm4.816 2.695c-.641 0-1.247-.13-1.822-.326l36.613-36.612 36.383 36.382c-.735.346-1.546.556-2.411.556z"/><path d="m248.937 277.908h-68.763c-1.048 0-1.896.848-1.896 1.896s.848 1.896 1.896 1.896h68.763c1.048 0 1.896-.848 1.896-1.896s-.848-1.896-1.896-1.896z"/><path d="m248.937 289.286h-68.763c-1.048 0-1.896.848-1.896 1.896s.848 1.896 1.896 1.896h68.763c1.048 0 1.896-.848 1.896-1.896s-.848-1.896-1.896-1.896z"/><path d="m470.741 208.547h-39.219v-130.609c0-11.774-9.578-21.352-21.352-21.352h-388.818c-11.774 0-21.352 9.578-21.352 21.352v267.493c0 11.774 9.578 21.352 21.352 21.352h151.201c-.478 19.952-8.401 38.65-22.564 52.809l-9.274 9.274h-31.704c-1.048 0-1.896.848-1.896 1.896s.848 1.896 1.896 1.896h372.03c1.048 0 1.896-.848 1.896-1.896 0-.82-.525-1.502-1.253-1.767 4.561-3.373 7.561-8.744 7.561-14.839 0-38.019 0-146.727 0-187.107-.001-10.202-8.301-18.502-18.504-18.502zm14.711 18.502v16.344h-134.489v-16.344c0-8.111 6.6-14.709 14.711-14.709h105.067c8.111 0 14.711 6.598 14.711 14.709zm-77.178-18.502h-11.833v-18.272c0-5.223-4.24-9.481-9.481-9.481h-68.76c-5.188 0-9.481 4.267-9.481 9.481v68.722c0 2.783 1.17 5.348 3.341 7.261 1.726 1.431 3.907 2.22 6.141 2.22h28.97v9.443h-28.971c-1.048 0-1.896.848-1.896 1.896s.848 1.896 1.896 1.896h28.97v7.585h-28.97c-1.048 0-1.896.848-1.896 1.896s.848 1.896 1.896 1.896h28.97v10.05h-323.922v-223.306h385.026zm-61.104 18.502v1.167l-33.777 33.779c-.557-.902-.882-1.917-.882-2.997v-68.722c0-.854.213-1.674.579-2.429l34.7 34.698c-.366 1.449-.62 2.942-.62 4.504zm-31.398-41.883c.755-.366 1.574-.58 2.428-.58h68.759c1.082 0 2.087.32 2.972.869l-23.09 23.092h-1.167c-7.17 0-13.33 4.141-16.401 10.118zm76.552 3.26c.201.587.325 1.204.325 1.849v18.272h-20.445zm-45.154 76.26h-28.97c-.634 0-1.243-.122-1.822-.313l30.793-30.794c-.001 1.906-.001 31.622-.001 31.107zm-325.818-204.307h388.818c9.681 0 17.559 7.878 17.559 17.559v130.609h-15.663v-130.609c0-1.048-.848-1.896-1.896-1.896h-388.818c-1.048 0-1.896.848-1.896 1.896v227.1c0 1.048.848 1.896 1.896 1.896h325.818v16.006h-343.377v-245.002c0-9.682 7.877-17.559 17.559-17.559zm-17.559 285.052v-18.698h343.377v36.257h-325.818c-9.682 0-17.559-7.878-17.559-17.559zm142.285 83.435 6.593-6.593c14.878-14.876 23.267-34.515 23.744-55.481h78.696c.478 20.967 8.867 40.606 23.744 55.481l6.593 6.593zm144.733 0-9.274-9.274c-14.162-14.159-22.086-32.857-22.564-52.809h88.197v47.374c0 6.022 2.935 11.329 7.403 14.709zm194.641-14.71c0 8.111-6.6 14.709-14.711 14.709h-105.067c-8.111 0-14.711-6.598-14.711-14.709v-16.344h134.489zm0-20.137h-134.489c0-48.211 0-91 0-146.833h134.489z"/><path d="m402.756 225.969c-1.048 0-1.896.848-1.896 1.896s.848 1.896 1.896 1.896h30.907c1.048 0 1.896-.848 1.896-1.896s-.848-1.896-1.896-1.896z"/><path d="m442.741 229.762h3.526c1.048 0 1.896-.848 1.896-1.896s-.848-1.896-1.896-1.896h-3.526c-1.048 0-1.896.848-1.896 1.896-.001 1.048.848 1.896 1.896 1.896z"/><path d="m418.207 423.747c5.748 0 10.422-4.676 10.422-10.422s-4.674-10.42-10.422-10.42c-5.744 0-10.419 4.674-10.419 10.42.001 5.746 4.675 10.422 10.419 10.422zm0-17.05c3.656 0 6.63 2.974 6.63 6.628 0 3.656-2.974 6.63-6.63 6.63-3.652 0-6.626-2.974-6.626-6.63 0-3.654 2.975-6.628 6.626-6.628z"/><path d="m368.159 308.958h100.096c5.23 0 9.481-4.254 9.481-9.481v-34.604c0-5.228-4.252-9.481-9.481-9.481h-100.096c-5.23 0-9.481 4.254-9.481 9.481v34.604c0 5.228 4.252 9.481 9.481 9.481zm-5.689-44.085c0-3.137 2.552-5.689 5.689-5.689h100.096c3.137 0 5.689 2.552 5.689 5.689v34.604c0 3.137-2.552 5.689-5.689 5.689h-100.096c-3.137 0-5.689-2.552-5.689-5.689z"/><path d="m364.356 351.118h22.489c3.137 0 5.689-2.552 5.689-5.689v-22.467c0-3.137-2.552-5.689-5.689-5.689h-22.489c-3.137 0-5.689 2.552-5.689 5.689v22.467c0 3.137 2.552 5.689 5.689 5.689zm13.92-16.918 10.465-10.464v20.928zm7.763 13.125h-20.889l10.444-10.444zm-10.445-15.806-10.453-10.453h20.907zm-2.681 2.681-10.454 10.453v-20.906z"/><path d="m389.278 362.495h-27.356c-1.048 0-1.896.848-1.896 1.896s.848 1.896 1.896 1.896h27.356c1.048 0 1.896-.848 1.896-1.896s-.848-1.896-1.896-1.896z"/><path d="m389.278 375.769h-27.356c-1.048 0-1.896.848-1.896 1.896s.848 1.896 1.896 1.896h27.356c1.048 0 1.896-.848 1.896-1.896 0-1.047-.848-1.896-1.896-1.896z"/><path d="m431.889 362.495h-27.359c-1.048 0-1.896.848-1.896 1.896s.848 1.896 1.896 1.896h27.359c1.048 0 1.896-.848 1.896-1.896s-.848-1.896-1.896-1.896z"/><path d="m431.889 375.769h-27.359c-1.048 0-1.896.848-1.896 1.896s.848 1.896 1.896 1.896h27.359c1.048 0 1.896-.848 1.896-1.896 0-1.047-.848-1.896-1.896-1.896z"/><path d="m474.5 362.495h-27.359c-1.048 0-1.896.848-1.896 1.896s.848 1.896 1.896 1.896h27.359c1.048 0 1.896-.848 1.896-1.896s-.848-1.896-1.896-1.896z"/><path d="m474.5 375.769h-27.359c-1.048 0-1.896.848-1.896 1.896s.848 1.896 1.896 1.896h27.359c1.048 0 1.896-.848 1.896-1.896 0-1.047-.848-1.896-1.896-1.896z"/><path d="m429.452 317.273h-22.489c-3.137 0-5.689 2.552-5.689 5.689v22.467c0 3.137 2.552 5.689 5.689 5.689h22.489c3.137 0 5.689-2.552 5.689-5.689v-22.467c0-3.137-2.552-5.689-5.689-5.689zm-13.924 16.927-10.461 10.46v-20.92zm-7.772-13.134h20.907l-10.453 10.453zm10.453 15.815 10.444 10.444h-20.888zm2.682-2.681 10.457-10.456v20.913z"/><path d="m472.048 317.273h-22.489c-3.137 0-5.689 2.552-5.689 5.689v22.467c0 3.137 2.552 5.689 5.689 5.689h22.489c3.137 0 5.689-2.552 5.689-5.689v-22.467c0-3.137-2.552-5.689-5.689-5.689zm-13.904 16.927-10.481 10.482v-20.965zm-7.77-13.134h20.904l-10.452 10.453zm10.452 15.815 10.443 10.444h-20.886zm2.681-2.681 10.437-10.438v20.876z"/></g></g></g></g></svg>