<svg id="Layer_1" enable-background="new 0 0 52 52" height="512" viewBox="0 0 52 52" width="512" xmlns="http://www.w3.org/2000/svg"><g id="Responsive_Design"><g><g><g><g><g><path d="m33.3200188 42.6672287-.0099488 1.5300293-9.9700317 5.7999878-5.1199951-2.9799805c-1.3800049-.8000488-2.5-2.7300415-2.4899902-4.3200073l.0100098-3.9800415 1.3399658.7700195 9.9700317-5.7999878-.0100098 3.9899902c0 .7399902.5200195 1.6400146 1.1599731 2.0100098z" fill="#111d33"/></g></g><g><g><path d="m23.3408718 48.4628487 9.9780216-5.7985764-.0043602 1.5371513-9.9780483 5.7985764z" fill="#1d2943"/></g></g><g><g><path d="m33.3176651 42.667717-9.9761677 5.7951317-5.113121-2.9809494c-.6418037-.368103-1.1609058-1.2647057-1.1609058-2.0103111l.0093975-3.9829178 9.9761448-5.8045273-.0093994 3.9924202c0 .7362061.5191269 1.6422081 1.1609058 2.0103111z" fill="#4c5c75"/></g></g><g><g><path d="m17.0766602 39.4852257-.0112782 3.9883499c-.0020885.7409019.520483 1.6390724 1.159235 2.0079041l5.1162548 2.981369-.0043869 1.5371513-5.1162548-2.9813652c-1.3799667-.796669-2.4971418-2.7316856-2.4926519-4.3173981l.0113831-3.9883461z" fill="#111d33"/></g></g><g><path d="m36.3400383 3.8272638c-.1005898-.0671272-.3558846-.1525381-.0499878-.0300293.0200195.0100098.039978.0200196.0499878.0300293z" fill="#1d2943"/></g><g fill="#1d2943"><path d="m37.0000725 29.0772648c0 1.25-.8800049 2.7699585-1.9700317 3.3999615l-27.0200196 15.6400146c-.5899658.3499756-1.1300049.3499756-1.4899902.0700073.0300293.0299683.0599976.0499878.0900269.0700073l-2.9400027-1.710022c-.3599854-.2000122-.5700073-.6400146-.5700073-1.2600098l-.0499879-23.9699687c-.0100098-1.25.8800049-2.7800293 1.9599612-3.4100342l27.0200195-15.6300058c.5499878-.3199463 1.039978-.3499756 1.4100342-.1399536l2.8499756 1.6599731c-1.0107613-.4047978-.0509262-.0373144.0499878.0300293.3800049.1900024.6099854.6399536.6099854 1.2799683z"/><path d="m36.3400383 3.8272638c-.1005898-.0671272-.3558846-.1525381-.0499878-.0300293.0200195.0100098.039978.0200196.0499878.0300293z"/></g><g><path d="m3.050034 21.3148479c-.0069966-1.2515488.8760309-2.7740822 1.9606013-3.4067993l27.0213127-15.635416c.5492821-.3197529 1.0429039-.3476347 1.4044266-.1390958l2.940979 1.7105007c-.3614426-.2085392-.8551712-.1808662-1.4044533.1320989l-27.0212068 15.642308c-1.0845704.625721-1.9675741 2.1553555-1.9607058 3.4067993l.0417705 23.9640446c.0068922.6258278.2224278 1.0567932.5770593 1.2654381l-2.9410584-1.7102928c-.354527-.2017517-.5700624-.6397133-.5700624-1.2585449z" fill="#4c5c75"/></g><g><path d="m34.97332 3.9794784c1.0876236-.6279144 1.9738617-.1228051 1.9774132 1.1319795l.0467834 23.9646721c.0035477 1.2496681-.8769722 2.7747078-1.9644661 3.4026222l-27.0200586 15.6393852c-1.0875988.6279144-1.9738636.1228027-1.9774141-1.1268654l-.046783-23.9646702c-.0035505-1.2547855.8769708-2.7798252 1.9645696-3.4077396z" fill="#1d2943"/></g><g><path d="m37.0000725 26.567255v2.5100098c0 1.25-.8800049 2.7699585-1.9700317 3.3999615l-27.0200196 15.6400146c-.5899658.3499756-1.1300049.3499756-1.4899902.0700073.0300293.0299683.0599976.0499878.0900269.0700073l-2.9400027-1.710022c-.3599854-.2000122-.5700073-.6400146-.5700073-1.2600098l-.0100098-2.5199585 2.9500124 1.7199707z" fill="#b0b8cf"/></g><g><path d="m6.0327582 46.9892883.002924-2.5050774-2.9425201-1.7120667.0055346 2.5137444c0 .6188316.215431 1.0567932.5700624 1.2585449l2.9410584 1.7102928c-.3546314-.2086448-.5701671-.6396102-.5770593-1.265438z" fill="#b0b8cf"/></g><g><path d="m36.9975166 26.5689621v2.5071678c.0035477 1.2496681-.8769722 2.7747078-1.9644661 3.4026222l-27.0200586 15.6393853c-1.0875988.6279144-1.9738636.1228027-1.9774141-1.1268654l.0001044-2.507061z" fill="#e3e7f0"/></g><g><path d="m6.0327582 46.9892883.002924-2.5050774-2.9425201-1.7120667.0055346 2.5137444c0 .6188316.215431 1.0567932.5700624 1.2585449l2.9410584 1.7102928c-.3546314-.2086448-.5701671-.6396102-.5770593-1.265438z" fill="#b0b8cf"/></g><g><path d="m36.9975166 26.5689621v2.5071678c.0035477 1.2496681-.8769722 2.7747078-1.9644661 3.4026222l-27.0200586 15.6393853c-1.0875988.6279144-1.9738636.1228027-1.9774141-1.1268654l.0001044-2.507061z" fill="#e3e7f0"/></g><g><path d="m22.1916618 36.3209038c.5580769-.322258 1.0089664-.0653687 1.0107403.5760155.0018806.6412811-.4461079 1.4170609-1.0041618 1.7392159-.5580521.3222618-1.0088615.0653725-1.0107155-.5759087-.0018005-.6413842.4460831-1.4171677 1.004137-1.7393227z" fill="#1d2943"/></g><g><path d="m36.0257263 26.0895424-29.0443373 16.8091659-.0288453-19.8730468c-.0096068-.9109097.6904659-2.1191196 1.4766908-2.5793266l27.0212088-15.6392794c.2205467-.1246848.3547325-.1342916.4026909-.1342916.0575142.0192142.1342659.143899.1342659.4410958z" fill="#fff"/></g><g><g><g><path d="m15.277523 27.7655334.0139828 4.9319115-6.8341169 3.9456787-.0139828-4.9319095z" fill="#78e75a"/></g></g><g><g><path d="m24.777626 28.2492828.0015164.5350094-6.6200485 3.8220883-.0015164-.5350113z" fill="#e3e7f0"/></g></g><g><g><path d="m24.8677711 22.2286015.0139809 4.9319095-6.834116 3.9456787-.0139827-4.9319095z" fill="#dba660"/></g></g><g enable-background="new"><g><g><path d="m32.8806763 25.6652374.0014991.5288601-3.6337986 2.0979748-.0014991-.5288582z" fill="#e3e7f0"/></g></g><g><g><path d="m34.3708382 23.7577667.0014991.5288582-6.6254024 3.8251782-.0014992-.5288601z" fill="#e3e7f0"/></g></g><g><g><path d="m34.3678741 22.7123508.0015145.5350094-6.6254006 3.8251782-.0015163-.5350113z" fill="#e3e7f0"/></g></g><g><g><path d="m34.4580193 16.6916695.0139808 4.9319095-6.8341255 3.9456845-.0139828-4.9319096z" fill="#febc1f"/></g></g></g><g><g><path d="m24.7805901 29.2946987.0014991.5288582-6.6200485 3.8220882-.0014992-.5288581z" fill="#e3e7f0"/></g></g><g enable-background="new"><g><g><path d="m34.5490952 11.0030727.0124321 4.3846064-26.1216422 15.0813379-.0124302-4.3846073z" fill="#f45170"/></g></g><g><g><path d="m17.2790623 17.1550026.007288 2.5704918-8.8624173 5.1167183-.007287-2.5704899z" fill="#57b3fe"/></g></g></g><g><g><g><path d="m13.7001896 36.7390976.0015001.5288582-3.6337995 2.0979767-.0014992-.528862z" fill="#e3e7f0"/></g></g><g><g><path d="m15.1903515 34.8316269.0014992.5288582-6.6200486 3.8220863-.0014991-.5288582z" fill="#e3e7f0"/></g></g><g><g><path d="m15.1873875 33.7862091.0015163.5350113-6.6200485 3.8220863-.0015164-.5350113z" fill="#e3e7f0"/></g></g></g><g><g><path d="m23.2904377 31.2021656.0014992.5288582-3.6338082 2.0979824-.0014991-.528862z" fill="#e3e7f0"/></g></g></g></g><path d="m48.9500237 37.3572311c0 .8400269-.5899658 1.8500366-1.3099976 2.2700195l-9.2999878 5.3599854c-.3999634.2299805-.75.2299805-.9899902.0499878.0200195.0200195.0299683.0300293.0499878.0499878l-2.039978-1.289978c-.2300415-.1400146-.3800049-.4299927-.3800049-.8499756-.0761375-28.4221382-.0397263-14.8289623-.0499878-18.6600323h.0100098c-.0100098-.8299561.5799561-1.8399658 1.2999878-2.2600098l9.2999878-5.3599854c.3699951-.2099609.7000122-.2299805.9400024-.0899658l.3900146.2399902 1.5999756 1.0100098c.0100098.0099487.0200195.0199585.039978.0199585.2400513.1400146.3900146.4400024.3900146.8500366z" fill="#1d2943"/><g><path d="m48.5196342 17.8604641c-.2378845-.1416035-.5720482-.1189404-.9402046.0962811l-9.2928009 5.3546982h-.0056343c-.7306786.4248714-1.3083572 1.4329987-1.3083572 2.2655907l.0453224 18.6612816c0 .4134789.152935.7080154.3851204.8439255l-2.0427933-1.2867661c-.2321892-.1359673-.3794899-.4248085-.3851852-.8439217-.0689392-28.4240417-.0359688-14.8299561-.0452614-18.6612816h.0056343c-.0056343-.832655.5833778-1.8464775 1.3084221-2.2655926l9.2927399-5.3603935c.3737869-.2095261.7023163-.226553.9402008-.0905838z" fill="#9ea9c9"/></g><g><path d="m46.926815 16.8431988c-.2378845-.1416035-.572113-.1189423-.9402046.0962811l-9.2927361 5.3547592h-.0056953c-.7306786.4247475-1.3083611 1.4328747-1.3083611 2.2655296l.0453224 18.6612816c0 .4134789.1528702.7080154.3851204.8439217l-.4499741-.2694969c-.2321892-.1359673-.3794899-.4248085-.3851852-.8439217-.0689392-28.4240417-.0359688-14.8299561-.0452614-18.6612816h.0056343c-.0056343-.832655.5833778-1.8464775 1.3084221-2.2655926l9.2927399-5.3603935c.3737869-.2095261.7023163-.226553.9402008-.0905838z" fill="#111d33"/></g><g><path d="m47.5813065 17.9539909c.7274857-.4200535 1.3165627-.0843868 1.3188782.7479553l.0457611 18.6599045c.0023766.8359756-.5828743 1.8496094-1.3103638 2.2696609l-9.2966805 5.3583908c-.7274857.4199905-1.3165588.0843239-1.3189392-.7516479l-.0457001-18.6599121c-.0023766-.8322735.5828171-1.8459702 1.3104286-2.2659607z" fill="#1d2943"/></g><g><path d="m47.9654274 20.0835495.0401268 16.3839836-10.0507736 5.820076-.040062-16.3840485z" fill="#fff"/></g><g><path d="m41.7675552 22.8562088c-.0973434 0-.192997-.0508327-.244957-.1416035-.0786247-.1355305-.0321159-.3086224.1034164-.3869362l2.3850365-1.3766575c.134903-.0783138.3086243-.0318012.3866196.1036663.0785065.1355305.0321159.3086853-.1034775.3869362l-2.3850327 1.3767204c-.0447615.0256673-.0934638.0378743-.1416053.0378743z" fill="#4c5c75"/></g><g><path d="m43.3065987 39.8785973c.3754196-.2167854.6862335-.0426292.6874847.394886.0012512.4343872-.3075562.9692535-.6830368 1.186039-.3806763.2198524-.691555.0426254-.6927452-.391758-.0012512-.4374542.307621-.9693108.6882973-1.189167z" fill="#4c5c75"/></g><g><g enable-background="new"><g><g fill="#c9cee2"><path d="m36.5800285 26.5572453-.0100098 1.8200073c0 .0999756-.0299683.1799927-.0899658.2199707l-.2000122.1100464c-.0200195.0099487-.0299683.0199585-.0499878.0299683-.0599976.039978-.1500244.0300293-.2399902-.0200195-.1900024-.1099854-.3400269-.3800049-.3400269-.5999756v-1.8200073c0-.1500244.0700073-.2399902.1799927-.2399902h-.039978l.2000122-.1199951c.0700073-.0400391.1499634-.0300293.25.0299683.1900025.1000364.3399658.3699949.3399658.5900267z"/><path d="m36.5700188 30.4972477v1.8099957c0 .1099854-.039978.1900024-.0999756.2199707l-.2399902.1400146c-.0599976.0400391-.1500244.0400391-.25-.0200195-.1900024-.1099854-.3400269-.3699951-.3400269-.5899658v-1.8200054c0-.1099854.0400391-.1799927.1000366-.2199707 0-.0100098.0100098-.0100098.0199585-.0100098l.2200317-.1300049c.0700073-.0400391.1499634-.0300293.25.0199585.1900025.1100464.3399659.3800049.3399659.6000366z"/></g></g></g></g><g><g enable-background="new"><g><g><path d="m36.5792503 26.555048-.0045662 1.8183708c0 .1082363-.0360603.1849861-.0992241.2210369l-.2442703.1408539c.0631638-.0361786.1037941-.1128025.1037941-.2211018l.0045052-1.8183689c0-.2166691-.1533699-.4828415-.342926-.5911407-.0811958-.0450745-.1488647-.0586586-.2075195-.0450745l.2035751-.1182518c.0632248-.0405655.1488686-.0315514.2436409.0225925.1895561.1082421.3474998.3744221.3429908.5910836z" fill="#c9cee2"/></g></g><g><g><path d="m35.9949341 26.1041336c.1901207.1098022.3451805.3749809.3445549.5934582l-.0051308 1.8173618c-.0006866.2184772-.1566925.3075008-.3468704.1976986-.1901207-.1098003-.3423042-.3767376-.3416786-.5952148l.0051956-1.8173618c.0006256-.2184773.1537475-.3056813.3439293-.195942z" fill="#fff"/></g></g></g><g enable-background="new"><g><g><path d="m36.5701752 30.4948387-.004509 1.8138618c0 .1128082-.0360565.1849861-.0992203.2211075l-.2442703.140789c.0631638-.0361176.1037941-.1128044.1037941-.2211037l.0045052-1.8138638c0-.2211075-.1534348-.4872856-.342926-.5955868-.0992241-.0541496-.1849861-.0587196-.2481499-.0225983l.2442055-.1407261c.0631638-.0361843.1489258-.0316143.2436447.0225353.1895523.1082995.3474349.3744795.342926.5955851z" fill="#c9cee2"/></g></g><g><g><path d="m35.985733 30.0405388c.1901169.109745.3452415.3750477.3445549.5935249l-.0051346 1.8173065c-.0006256.2185402-.1566887.3074341-.3468704.1976318-.1900558-.1097412-.3423042-.3766708-.3416138-.59515l.0051346-1.8173046c.0005608-.2184772.1537476-.3058051.3439293-.1960086z" fill="#fff"/></g></g></g></g><g><g><g><path d="m41.513073 24.7737904.0061683 2.1758442-3.0333328 1.751295-.0061684-2.1758442z" fill="#f45170"/></g></g><g><g><path d="m47.3877144 35.3574753.0012741.4487343-2.2659187 1.3082313-.0012741-.4487381z" fill="#e3e7f0"/></g></g><g><g><path d="m47.3852005 34.4704361.0012703.4487381-2.2659187 1.3082275-.0012703-.4487343z" fill="#e3e7f0"/></g></g><g><g><path d="m47.407196 29.3933487.0118638 4.1847305-2.3385811 1.3501778-.0118637-4.1847286z" fill="#dba660"/></g></g><g><g><path d="m47.429985 24.5980282.0105477 3.7203388-8.9410744 5.1621323-.0105476-3.7203408z" fill="#57b3fe"/></g></g><g><g><path d="m40.8215446 39.1484528.0012742.4487381-2.2659188 1.3082275-.0012741-.4487343z" fill="#e3e7f0"/></g></g><g><g><path d="m40.8190308 38.2614174.0012703.4487381-2.2659188 1.3082275-.0012703-.4487381z" fill="#e3e7f0"/></g></g><g><g><path d="m40.8410187 33.1843338.0118637 4.1847305-2.3385735 1.350174-.0118637-4.1847305z" fill="#78e75a"/></g></g><g><g><path d="m44.1241074 31.2888412.0118637 4.1847306-2.3385735 1.3501739-.0118637-4.1847305z" fill="#febc1f"/></g></g><g><g><path d="m44.1046257 37.252964.0012741.4487381-2.2659187 1.3082314-.0012741-.4487381z" fill="#e3e7f0"/></g></g><g><g><path d="m44.1021118 36.3659286.0012703.4487381-2.2659187 1.3082276-.0012703-.4487381z" fill="#e3e7f0"/></g></g></g></g></g></g></svg>